<svg xmlns="http://www.w3.org/2000/svg" viewBox="0 0 512 512" width="512" height="512">
  <defs>
    <linearGradient id="bgGrad" x1="0%" y1="0%" x2="100%" y2="100%">
      <stop offset="0%" style="stop-color:#10b981"/>
      <stop offset="50%" style="stop-color:#14b8a6"/>
      <stop offset="100%" style="stop-color:#06b6d4"/>
    </linearGradient>
  </defs>
  <rect width="512" height="512" rx="100" fill="url(#bgGrad)"/>
  <ellipse cx="256" cy="310" rx="130" ry="80" fill="white"/>
  <path d="M126 310 Q126 230 256 230 Q386 230 386 310" fill="white"/>
  <ellipse cx="256" cy="230" rx="130" ry="32" fill="rgba(255,255,255,0.3)"/>
  <path d="M190 200 Q200 150 210 200" stroke="white" stroke-width="10" fill="none" stroke-linecap="round"/>
  <path d="M246 185 Q256 125 266 185" stroke="white" stroke-width="10" fill="none" stroke-linecap="round"/>
  <path d="M300 200 Q310 150 320 200" stroke="white" stroke-width="10" fill="none" stroke-linecap="round"/>
  <ellipse cx="200" cy="270" rx="22" ry="14" fill="#10b981"/>
  <ellipse cx="256" cy="285" rx="28" ry="16" fill="#14b8a6"/>
  <ellipse cx="315" cy="270" rx="22" ry="14" fill="#06b6d4"/>
  <circle cx="225" cy="255" r="10" fill="#10b981" opacity="0.7"/>
  <circle cx="290" cy="255" r="10" fill="#06b6d4" opacity="0.7"/>
</svg>
