<svg xmlns="http://www.w3.org/2000/svg" viewBox="0 0 512 512" width="512" height="512">
  <defs>
    <linearGradient id="bgGrad" x1="0%" y1="0%" x2="100%" y2="100%">
      <stop offset="0%" style="stop-color:#10b981"/>
      <stop offset="50%" style="stop-color:#14b8a6"/>
      <stop offset="100%" style="stop-color:#06b6d4"/>
    </linearGradient>
    <linearGradient id="plateGrad" x1="0%" y1="0%" x2="100%" y2="100%">
      <stop offset="0%" style="stop-color:#ffffff"/>
      <stop offset="100%" style="stop-color:#f0fdfa"/>
    </linearGradient>
  </defs>
  <rect width="512" height="512" rx="115" fill="url(#bgGrad)"/>
  <circle cx="256" cy="268" r="155" fill="url(#plateGrad)" opacity="0.95"/>
  <circle cx="256" cy="268" r="128" fill="none" stroke="#e2e8f0" stroke-width="4"/>
  <ellipse cx="213" cy="236" rx="48" ry="32" fill="#22c55e" transform="rotate(-15 213 236)"/>
  <ellipse cx="307" cy="248" rx="43" ry="27" fill="#f97316" transform="rotate(20 307 248)"/>
  <ellipse cx="240" cy="308" rx="54" ry="22" fill="#fbbf24" transform="rotate(-5 240 308)"/>
  <ellipse cx="280" cy="288" rx="27" ry="22" fill="#ef4444" transform="rotate(10 280 288)"/>
  <circle cx="256" cy="268" r="16" fill="#fef3c7"/>
  <circle cx="256" cy="268" r="8" fill="#fb923c"/>
  <rect x="335" y="80" width="110" height="75" rx="20" fill="white" opacity="0.9"/>
  <circle cx="390" cy="118" r="28" fill="#10b981"/>
  <circle cx="390" cy="118" r="17" fill="white"/>
  <circle cx="390" cy="118" r="8" fill="#10b981"/>
  <path d="M72 148 L104 116 L136 148" stroke="white" stroke-width="10" stroke-linecap="round" stroke-linejoin="round" fill="none" opacity="0.7"/>
  <path d="M376 400 L408 432 L440 400" stroke="white" stroke-width="10" stroke-linecap="round" stroke-linejoin="round" fill="none" opacity="0.7"/>
</svg>
