<svg xmlns="http://www.w3.org/2000/svg" viewBox="0 0 192 192" width="192" height="192">
  <defs>
    <linearGradient id="bgGrad" x1="0%" y1="0%" x2="100%" y2="100%">
      <stop offset="0%" style="stop-color:#10b981"/>
      <stop offset="50%" style="stop-color:#14b8a6"/>
      <stop offset="100%" style="stop-color:#06b6d4"/>
    </linearGradient>
  </defs>
  <rect width="192" height="192" rx="40" fill="url(#bgGrad)"/>
  <!-- Camera body -->
  <rect x="24" y="52" width="144" height="112" rx="24" fill="white"/>
  <!-- Camera bump -->
  <rect x="48" y="28" width="48" height="28" rx="10" fill="white"/>
  <!-- Camera button -->
  <circle cx="144" cy="68" r="12" fill="white"/>
  <circle cx="144" cy="68" r="7" fill="#e5e7eb"/>
  <!-- Lens outer -->
  <circle cx="96" cy="108" r="48" fill="white"/>
  <circle cx="96" cy="108" r="42" fill="#e5e7eb" opacity="0.5"/>
  <circle cx="96" cy="108" r="38" fill="white"/>
  <!-- Bowl colorido -->
  <circle cx="96" cy="108" r="34" fill="#faf5ff"/>
  <!-- Secao salmao -->
  <path d="M96 108L96 74A34 34 0 0 1 125 93Z" fill="#fb923c"/>
  <!-- Secao abacate -->
  <path d="M96 108L125 93A34 34 0 0 1 130 108L130 120A34 34 0 0 1 115 135Z" fill="#22c55e"/>
  <!-- Secao arroz -->
  <path d="M96 108L115 135A34 34 0 0 1 77 135Z" fill="#fef3c7"/>
  <!-- Secao beterraba -->
  <path d="M96 108L77 135A34 34 0 0 1 62 120L62 108A34 34 0 0 1 68 93Z" fill="#c084fc"/>
  <!-- Secao pepino -->
  <path d="M96 108L68 93A34 34 0 0 1 96 74Z" fill="#86efac"/>
  <!-- Centro ovo -->
  <circle cx="96" cy="108" r="12" fill="#fef3c7"/>
  <circle cx="96" cy="108" r="6" fill="#fb923c"/>
  <!-- Brilho -->
  <ellipse cx="75" cy="85" rx="12" ry="6" fill="white" opacity="0.5" transform="rotate(-40 75 85)"/>
</svg>
