<svg xmlns="http://www.w3.org/2000/svg" viewBox="0 0 192 192" width="192" height="192">
  <defs>
    <linearGradient id="bgGrad" x1="0%" y1="0%" x2="100%" y2="100%">
      <stop offset="0%" style="stop-color:#10b981"/>
      <stop offset="50%" style="stop-color:#14b8a6"/>
      <stop offset="100%" style="stop-color:#06b6d4"/>
    </linearGradient>
  </defs>
  <rect width="192" height="192" rx="40" fill="url(#bgGrad)"/>
  <ellipse cx="96" cy="115" rx="50" ry="30" fill="white"/>
  <path d="M46 115 Q46 85 96 85 Q146 85 146 115" fill="white"/>
  <ellipse cx="96" cy="85" rx="50" ry="12" fill="rgba(255,255,255,0.3)"/>
  <path d="M70 75 Q75 55 80 75" stroke="white" stroke-width="4" fill="none" stroke-linecap="round"/>
  <path d="M90 70 Q95 45 100 70" stroke="white" stroke-width="4" fill="none" stroke-linecap="round"/>
  <path d="M110 75 Q115 55 120 75" stroke="white" stroke-width="4" fill="none" stroke-linecap="round"/>
  <ellipse cx="75" cy="100" rx="8" ry="5" fill="#10b981"/>
  <ellipse cx="96" cy="105" rx="10" ry="6" fill="#14b8a6"/>
  <ellipse cx="118" cy="100" rx="8" ry="5" fill="#06b6d4"/>
  <circle cx="85" cy="95" r="4" fill="#10b981" opacity="0.7"/>
  <circle cx="108" cy="95" r="4" fill="#06b6d4" opacity="0.7"/>
</svg>
