<svg xmlns="http://www.w3.org/2000/svg" viewBox="0 0 512 512" width="512" height="512">
  <defs>
    <linearGradient id="bgGrad" x1="0%" y1="0%" x2="100%" y2="100%">
      <stop offset="0%" style="stop-color:#10b981"/>
      <stop offset="50%" style="stop-color:#14b8a6"/>
      <stop offset="100%" style="stop-color:#06b6d4"/>
    </linearGradient>
  </defs>
  <rect width="512" height="512" rx="100" fill="url(#bgGrad)"/>
  <!-- Camera body -->
  <rect x="56" y="130" width="400" height="310" rx="60" fill="white"/>
  <!-- Camera bump -->
  <rect x="120" y="66" width="130" height="72" rx="24" fill="white"/>
  <!-- Camera button -->
  <circle cx="390" cy="175" r="32" fill="white"/>
  <circle cx="390" cy="175" r="20" fill="#e5e7eb"/>
  <!-- Lens outer -->
  <circle cx="256" cy="290" r="130" fill="white"/>
  <circle cx="256" cy="290" r="115" fill="#e5e7eb" opacity="0.5"/>
  <circle cx="256" cy="290" r="105" fill="white"/>
  <!-- Bowl colorido -->
  <circle cx="256" cy="290" r="92" fill="#faf5ff"/>
  <!-- Secao salmao -->
  <path d="M256 290L256 198A92 92 0 0 1 334 249Z" fill="#fb923c"/>
  <!-- Secao abacate -->
  <path d="M256 290L334 249A92 92 0 0 1 348 290L348 322A92 92 0 0 1 308 363Z" fill="#22c55e"/>
  <!-- Secao arroz -->
  <path d="M256 290L308 363A92 92 0 0 1 204 363Z" fill="#fef3c7"/>
  <!-- Secao beterraba -->
  <path d="M256 290L204 363A92 92 0 0 1 164 322L164 290A92 92 0 0 1 180 249Z" fill="#c084fc"/>
  <!-- Secao pepino -->
  <path d="M256 290L180 249A92 92 0 0 1 256 198Z" fill="#86efac"/>
  <!-- Centro ovo -->
  <circle cx="256" cy="290" r="32" fill="#fef3c7"/>
  <circle cx="256" cy="290" r="16" fill="#fb923c"/>
  <!-- Brilho -->
  <ellipse cx="200" cy="225" rx="32" ry="16" fill="white" opacity="0.5" transform="rotate(-40 200 225)"/>
</svg>
